{
	"asset":{
		"generator":"Khronos glTF Blender I/O v4.5.51",
		"version":"2.0"
	},
	"scene":0,
	"scenes":[
		{
			"name":"Scene",
			"nodes":[
				15
			]
		}
	],
	"nodes":[
		{
			"mesh":0,
			"name":"BROWNTREES",
			"translation":[
				111.15349578857422,
				-748.36279296875,
				-278.22003173828125
			]
		},
		{
			"mesh":1,
			"name":"Daylight Water",
			"rotation":[
				0.15002895891666412,
				0.04611186683177948,
				-0.02397667057812214,
				0.9873146414756775
			],
			"scale":[
				200,
				99.99999237060547,
				149.99998474121094
			],
			"translation":[
				0,
				-229.04998779296875,
				-38.019996643066406
			]
		},
		{
			"mesh":2,
			"name":"FLOORNEWUVFLATTEN",
			"translation":[
				5.6394805908203125,
				4.4964447021484375,
				-41.731773376464844
			]
		},
		{
			"mesh":3,
			"name":"GRASS_01",
			"translation":[
				94.77861022949219,
				-155.25247192382812,
				-30.246313095092773
			]
		},
		{
			"mesh":4,
			"name":"GRASS_05",
			"translation":[
				97.0202865600586,
				-316.8623352050781,
				-92.96110534667969
			]
		},
		{
			"mesh":5,
			"name":"NEW_TREE",
			"translation":[
				51.12969970703125,
				-416.8643493652344,
				-316.86065673828125
			]
		},
		{
			"mesh":6,
			"name":"polySurface16",
			"translation":[
				-126.07190704345703,
				-148.84304809570312,
				-22.82525634765625
			]
		},
		{
			"mesh":7,
			"name":"polySurface18"
		},
		{
			"mesh":8,
			"name":"pPlane10",
			"translation":[
				98.17974853515625,
				-295.8997802734375,
				-83.61982727050781
			]
		},
		{
			"mesh":9,
			"name":"pPlane12",
			"translation":[
				144.50625610351562,
				-252.27674865722656,
				-57.14677810668945
			]
		},
		{
			"mesh":10,
			"name":"pPlane23",
			"translation":[
				-152.22335815429688,
				-110.09194946289062,
				-24.288265228271484
			]
		},
		{
			"mesh":11,
			"name":"pPlane25",
			"translation":[
				-54.44207763671875,
				-377.2650146484375,
				-98.35175323486328
			]
		},
		{
			"mesh":12,
			"name":"pPlane7",
			"translation":[
				-127.37619018554688,
				-265.4563903808594,
				-53.84331512451172
			]
		},
		{
			"mesh":13,
			"name":"pPlane9",
			"translation":[
				63.73873519897461,
				-263.1856384277344,
				-62.21121597290039
			]
		},
		{
			"mesh":14,
			"name":"River_Mesh"
		},
		{
			"children":[
				0,
				1,
				2,
				3,
				4,
				5,
				6,
				7,
				8,
				9,
				10,
				11,
				12,
				13,
				14
			],
			"name":"o_donkey_forest_river",
			"rotation":[
				0.7071068286895752,
				0,
				0,
				0.7071068286895752
			],
			"scale":[
				0.009999999776482582,
				0.009999999776482582,
				0.009999999776482582
			]
		}
	],
	"materials":[
		{
			"doubleSided":true,
			"name":"t_donkey_backdrop2_c",
			"pbrMetallicRoughness":{
				"baseColorTexture":{
					"index":0
				},
				"metallicFactor":0,
				"roughnessFactor":0.5
			}
		},
		{
			"doubleSided":true,
			"name":"Daylight Water",
			"normalTexture":{
				"index":1
			},
			"pbrMetallicRoughness":{
				"baseColorTexture":{
					"index":2
				},
				"metallicFactor":0,
				"roughnessFactor":0.5
			}
		},
		{
			"doubleSided":true,
			"name":"t_donkey_backdrop_River_c",
			"pbrMetallicRoughness":{
				"baseColorTexture":{
					"index":3
				},
				"metallicFactor":0,
				"roughnessFactor":0.5
			}
		}
	],
	"meshes":[
		{
			"name":"BROWNTREES",
			"primitives":[
				{
					"attributes":{
						"POSITION":0,
						"NORMAL":1,
						"TEXCOORD_0":2
					},
					"indices":3,
					"material":0
				}
			]
		},
		{
			"name":"Daylight Water",
			"primitives":[
				{
					"attributes":{
						"POSITION":4,
						"NORMAL":5,
						"TEXCOORD_0":6
					},
					"indices":7,
					"material":1
				}
			]
		},
		{
			"name":"FLOORNEWUVFLATTEN",
			"primitives":[
				{
					"attributes":{
						"POSITION":8,
						"NORMAL":9,
						"TEXCOORD_0":10
					},
					"indices":11,
					"material":0
				},
				{
					"attributes":{
						"POSITION":12,
						"NORMAL":13,
						"TEXCOORD_0":14
					},
					"indices":15,
					"material":2
				}
			]
		},
		{
			"name":"GRASS_01",
			"primitives":[
				{
					"attributes":{
						"POSITION":16,
						"NORMAL":17,
						"TEXCOORD_0":18
					},
					"indices":19,
					"material":2
				}
			]
		},
		{
			"name":"GRASS_05",
			"primitives":[
				{
					"attributes":{
						"POSITION":20,
						"NORMAL":21,
						"TEXCOORD_0":22
					},
					"indices":23,
					"material":2
				}
			]
		},
		{
			"name":"NEW_TREE",
			"primitives":[
				{
					"attributes":{
						"POSITION":24,
						"NORMAL":25,
						"TEXCOORD_0":26
					},
					"indices":27,
					"material":2
				}
			]
		},
		{
			"name":"polySurface16",
			"primitives":[
				{
					"attributes":{
						"POSITION":28,
						"NORMAL":29,
						"TEXCOORD_0":30
					},
					"indices":31,
					"material":2
				}
			]
		},
		{
			"name":"polySurface18",
			"primitives":[
				{
					"attributes":{
						"POSITION":32,
						"NORMAL":33,
						"TEXCOORD_0":34
					},
					"indices":35,
					"material":2
				}
			]
		},
		{
			"name":"pPlane10",
			"primitives":[
				{
					"attributes":{
						"POSITION":36,
						"NORMAL":37,
						"TEXCOORD_0":38
					},
					"indices":39,
					"material":2
				}
			]
		},
		{
			"name":"pPlane12",
			"primitives":[
				{
					"attributes":{
						"POSITION":40,
						"NORMAL":41,
						"TEXCOORD_0":42
					},
					"indices":43,
					"material":2
				}
			]
		},
		{
			"name":"pPlane23",
			"primitives":[
				{
					"attributes":{
						"POSITION":44,
						"NORMAL":45,
						"TEXCOORD_0":46
					},
					"indices":43,
					"material":2
				}
			]
		},
		{
			"name":"pPlane25",
			"primitives":[
				{
					"attributes":{
						"POSITION":47,
						"NORMAL":48,
						"TEXCOORD_0":49
					},
					"indices":50,
					"material":2
				}
			]
		},
		{
			"name":"pPlane7",
			"primitives":[
				{
					"attributes":{
						"POSITION":51,
						"NORMAL":52,
						"TEXCOORD_0":53
					},
					"indices":43,
					"material":2
				}
			]
		},
		{
			"name":"pPlane9",
			"primitives":[
				{
					"attributes":{
						"POSITION":54,
						"NORMAL":55,
						"TEXCOORD_0":56
					},
					"indices":57,
					"material":2
				}
			]
		},
		{
			"name":"River_Mesh",
			"primitives":[
				{
					"attributes":{
						"POSITION":58,
						"NORMAL":59,
						"TEXCOORD_0":60
					},
					"indices":61,
					"material":2
				}
			]
		}
	],
	"textures":[
		{
			"sampler":0,
			"source":0
		},
		{
			"sampler":0,
			"source":1
		},
		{
			"sampler":0,
			"source":2
		},
		{
			"sampler":0,
			"source":3
		}
	],
	"images":[
		{
			"mimeType":"image/png",
			"name":"t_donkey_backdrop2_c.png",
			"uri":"t_donkey_backdrop2_c.png"
		},
		{
			"mimeType":"image/png",
			"name":"Waterbump.png",
			"uri":"Waterbump.png"
		},
		{
			"mimeType":"image/png",
			"name":"Water fallback.png",
			"uri":"Water%20fallback.png"
		},
		{
			"mimeType":"image/png",
			"name":"t_donkey_backdrop_River_c.png",
			"uri":"t_donkey_backdrop_River_c.png"
		}
	],
	"accessors":[
		{
			"bufferView":0,
			"componentType":5126,
			"count":6,
			"max":[
				632.5912475585938,
				0,
				295.9337463378906
			],
			"min":[
				-632.5912475585938,
				0,
				-295.93377685546875
			],
			"type":"VEC3"
		},
		{
			"bufferView":1,
			"componentType":5126,
			"count":6,
			"type":"VEC3"
		},
		{
			"bufferView":2,
			"componentType":5126,
			"count":6,
			"type":"VEC2"
		},
		{
			"bufferView":3,
			"componentType":5123,
			"count":12,
			"type":"SCALAR"
		},
		{
			"bufferView":4,
			"componentType":5126,
			"count":57,
			"max":[
				1,
				0.9999997019767761,
				0
			],
			"min":[
				-0.9999993443489075,
				-0.9999990463256836,
				0
			],
			"type":"VEC3"
		},
		{
			"bufferView":5,
			"componentType":5126,
			"count":57,
			"type":"VEC3"
		},
		{
			"bufferView":6,
			"componentType":5126,
			"count":57,
			"type":"VEC2"
		},
		{
			"bufferView":7,
			"componentType":5123,
			"count":240,
			"type":"SCALAR"
		},
		{
			"bufferView":8,
			"componentType":5126,
			"count":122,
			"max":[
				202.49545288085938,
				174.50083923339844,
				48.68846893310547
			],
			"min":[
				-172.35369873046875,
				-174.50083923339844,
				-29.636045455932617
			],
			"type":"VEC3"
		},
		{
			"bufferView":9,
			"componentType":5126,
			"count":122,
			"type":"VEC3"
		},
		{
			"bufferView":10,
			"componentType":5126,
			"count":122,
			"type":"VEC2"
		},
		{
			"bufferView":11,
			"componentType":5123,
			"count":576,
			"type":"SCALAR"
		},
		{
			"bufferView":12,
			"componentType":5126,
			"count":15,
			"max":[
				-156.7471923828125,
				-19.59148406982422,
				38.9566535949707
			],
			"min":[
				-202.49545288085938,
				-166.9850311279297,
				-8.358224868774414
			],
			"type":"VEC3"
		},
		{
			"bufferView":13,
			"componentType":5126,
			"count":15,
			"type":"VEC3"
		},
		{
			"bufferView":14,
			"componentType":5126,
			"count":15,
			"type":"VEC2"
		},
		{
			"bufferView":15,
			"componentType":5123,
			"count":39,
			"type":"SCALAR"
		},
		{
			"bufferView":16,
			"componentType":5126,
			"count":111,
			"max":[
				44.48683166503906,
				1.7278976440429688,
				31.810020446777344
			],
			"min":[
				-44.48683166503906,
				-1.7278976440429688,
				-31.810020446777344
			],
			"type":"VEC3"
		},
		{
			"bufferView":17,
			"componentType":5126,
			"count":111,
			"type":"VEC3"
		},
		{
			"bufferView":18,
			"componentType":5126,
			"count":111,
			"type":"VEC2"
		},
		{
			"bufferView":19,
			"componentType":5123,
			"count":375,
			"type":"SCALAR"
		},
		{
			"bufferView":20,
			"componentType":5126,
			"count":111,
			"max":[
				55.34661102294922,
				0.33001708984375,
				13.833507537841797
			],
			"min":[
				-26.976980209350586,
				-0.329986572265625,
				-38.4794807434082
			],
			"type":"VEC3"
		},
		{
			"bufferView":21,
			"componentType":5126,
			"count":111,
			"type":"VEC3"
		},
		{
			"bufferView":22,
			"componentType":5126,
			"count":111,
			"type":"VEC2"
		},
		{
			"bufferView":23,
			"componentType":5123,
			"count":375,
			"type":"SCALAR"
		},
		{
			"bufferView":24,
			"componentType":5126,
			"count":71,
			"max":[
				196.90997314453125,
				86.75653076171875,
				237.87615966796875
			],
			"min":[
				-196.90997314453125,
				-86.75653076171875,
				-237.87615966796875
			],
			"type":"VEC3"
		},
		{
			"bufferView":25,
			"componentType":5126,
			"count":71,
			"type":"VEC3"
		},
		{
			"bufferView":26,
			"componentType":5126,
			"count":71,
			"type":"VEC2"
		},
		{
			"bufferView":27,
			"componentType":5123,
			"count":312,
			"type":"SCALAR"
		},
		{
			"bufferView":28,
			"componentType":5126,
			"count":105,
			"max":[
				39.161216735839844,
				3.9805221557617188,
				39.45269775390625
			],
			"min":[
				-39.161216735839844,
				-3.9805221557617188,
				-39.45269775390625
			],
			"type":"VEC3"
		},
		{
			"bufferView":29,
			"componentType":5126,
			"count":105,
			"type":"VEC3"
		},
		{
			"bufferView":30,
			"componentType":5126,
			"count":105,
			"type":"VEC2"
		},
		{
			"bufferView":31,
			"componentType":5123,
			"count":375,
			"type":"SCALAR"
		},
		{
			"bufferView":32,
			"componentType":5126,
			"count":94,
			"max":[
				392.98828125,
				-166.9497528076172,
				30.60076332092285
			],
			"min":[
				-383.6979064941406,
				-604.8683471679688,
				-115.37773132324219
			],
			"type":"VEC3"
		},
		{
			"bufferView":33,
			"componentType":5126,
			"count":94,
			"type":"VEC3"
		},
		{
			"bufferView":34,
			"componentType":5126,
			"count":94,
			"type":"VEC2"
		},
		{
			"bufferView":35,
			"componentType":5123,
			"count":324,
			"type":"SCALAR"
		},
		{
			"bufferView":36,
			"componentType":5126,
			"count":27,
			"max":[
				44.746337890625,
				4.538665771484375,
				19.37059783935547
			],
			"min":[
				-44.746337890625,
				-4.538665771484375,
				-19.37059783935547
			],
			"type":"VEC3"
		},
		{
			"bufferView":37,
			"componentType":5126,
			"count":27,
			"type":"VEC3"
		},
		{
			"bufferView":38,
			"componentType":5126,
			"count":27,
			"type":"VEC2"
		},
		{
			"bufferView":39,
			"componentType":5123,
			"count":90,
			"type":"SCALAR"
		},
		{
			"bufferView":40,
			"componentType":5126,
			"count":22,
			"max":[
				34.025535583496094,
				3.321533203125,
				25.614648818969727
			],
			"min":[
				-34.025535583496094,
				-3.321533203125,
				-25.614648818969727
			],
			"type":"VEC3"
		},
		{
			"bufferView":41,
			"componentType":5126,
			"count":22,
			"type":"VEC3"
		},
		{
			"bufferView":42,
			"componentType":5126,
			"count":22,
			"type":"VEC2"
		},
		{
			"bufferView":43,
			"componentType":5123,
			"count":78,
			"type":"SCALAR"
		},
		{
			"bufferView":44,
			"componentType":5126,
			"count":22,
			"max":[
				28.537906646728516,
				21.9832763671875,
				28.965120315551758
			],
			"min":[
				-28.537906646728516,
				-21.9832763671875,
				-28.965120315551758
			],
			"type":"VEC3"
		},
		{
			"bufferView":45,
			"componentType":5126,
			"count":22,
			"type":"VEC3"
		},
		{
			"bufferView":46,
			"componentType":5126,
			"count":22,
			"type":"VEC2"
		},
		{
			"bufferView":47,
			"componentType":5126,
			"count":110,
			"max":[
				41.67242431640625,
				30.649703979492188,
				30.481016159057617
			],
			"min":[
				-41.67242431640625,
				-30.649703979492188,
				-30.48101234436035
			],
			"type":"VEC3"
		},
		{
			"bufferView":48,
			"componentType":5126,
			"count":110,
			"type":"VEC3"
		},
		{
			"bufferView":49,
			"componentType":5126,
			"count":110,
			"type":"VEC2"
		},
		{
			"bufferView":50,
			"componentType":5123,
			"count":345,
			"type":"SCALAR"
		},
		{
			"bufferView":51,
			"componentType":5126,
			"count":22,
			"max":[
				24.229827880859375,
				2.36529541015625,
				18.240373611450195
			],
			"min":[
				-24.229827880859375,
				-2.36529541015625,
				-18.240373611450195
			],
			"type":"VEC3"
		},
		{
			"bufferView":52,
			"componentType":5126,
			"count":22,
			"type":"VEC3"
		},
		{
			"bufferView":53,
			"componentType":5126,
			"count":22,
			"type":"VEC2"
		},
		{
			"bufferView":54,
			"componentType":5126,
			"count":26,
			"max":[
				30.972537994384766,
				4.607391357421875,
				16.72083282470703
			],
			"min":[
				-30.972537994384766,
				-4.607391357421875,
				-16.72083282470703
			],
			"type":"VEC3"
		},
		{
			"bufferView":55,
			"componentType":5126,
			"count":26,
			"type":"VEC3"
		},
		{
			"bufferView":56,
			"componentType":5126,
			"count":26,
			"type":"VEC2"
		},
		{
			"bufferView":57,
			"componentType":5123,
			"count":90,
			"type":"SCALAR"
		},
		{
			"bufferView":58,
			"componentType":5126,
			"count":52,
			"max":[
				309.8867492675781,
				-155.98699951171875,
				4.743427276611328
			],
			"min":[
				-276.8504638671875,
				-316.0859375,
				-77.42195129394531
			],
			"type":"VEC3"
		},
		{
			"bufferView":59,
			"componentType":5126,
			"count":52,
			"type":"VEC3"
		},
		{
			"bufferView":60,
			"componentType":5126,
			"count":52,
			"type":"VEC2"
		},
		{
			"bufferView":61,
			"componentType":5123,
			"count":144,
			"type":"SCALAR"
		}
	],
	"bufferViews":[
		{
			"buffer":0,
			"byteLength":72,
			"byteOffset":0,
			"target":34962
		},
		{
			"buffer":0,
			"byteLength":72,
			"byteOffset":72,
			"target":34962
		},
		{
			"buffer":0,
			"byteLength":48,
			"byteOffset":144,
			"target":34962
		},
		{
			"buffer":0,
			"byteLength":24,
			"byteOffset":192,
			"target":34963
		},
		{
			"buffer":0,
			"byteLength":684,
			"byteOffset":216,
			"target":34962
		},
		{
			"buffer":0,
			"byteLength":684,
			"byteOffset":900,
			"target":34962
		},
		{
			"buffer":0,
			"byteLength":456,
			"byteOffset":1584,
			"target":34962
		},
		{
			"buffer":0,
			"byteLength":480,
			"byteOffset":2040,
			"target":34963
		},
		{
			"buffer":0,
			"byteLength":1464,
			"byteOffset":2520,
			"target":34962
		},
		{
			"buffer":0,
			"byteLength":1464,
			"byteOffset":3984,
			"target":34962
		},
		{
			"buffer":0,
			"byteLength":976,
			"byteOffset":5448,
			"target":34962
		},
		{
			"buffer":0,
			"byteLength":1152,
			"byteOffset":6424,
			"target":34963
		},
		{
			"buffer":0,
			"byteLength":180,
			"byteOffset":7576,
			"target":34962
		},
		{
			"buffer":0,
			"byteLength":180,
			"byteOffset":7756,
			"target":34962
		},
		{
			"buffer":0,
			"byteLength":120,
			"byteOffset":7936,
			"target":34962
		},
		{
			"buffer":0,
			"byteLength":78,
			"byteOffset":8056,
			"target":34963
		},
		{
			"buffer":0,
			"byteLength":1332,
			"byteOffset":8136,
			"target":34962
		},
		{
			"buffer":0,
			"byteLength":1332,
			"byteOffset":9468,
			"target":34962
		},
		{
			"buffer":0,
			"byteLength":888,
			"byteOffset":10800,
			"target":34962
		},
		{
			"buffer":0,
			"byteLength":750,
			"byteOffset":11688,
			"target":34963
		},
		{
			"buffer":0,
			"byteLength":1332,
			"byteOffset":12440,
			"target":34962
		},
		{
			"buffer":0,
			"byteLength":1332,
			"byteOffset":13772,
			"target":34962
		},
		{
			"buffer":0,
			"byteLength":888,
			"byteOffset":15104,
			"target":34962
		},
		{
			"buffer":0,
			"byteLength":750,
			"byteOffset":15992,
			"target":34963
		},
		{
			"buffer":0,
			"byteLength":852,
			"byteOffset":16744,
			"target":34962
		},
		{
			"buffer":0,
			"byteLength":852,
			"byteOffset":17596,
			"target":34962
		},
		{
			"buffer":0,
			"byteLength":568,
			"byteOffset":18448,
			"target":34962
		},
		{
			"buffer":0,
			"byteLength":624,
			"byteOffset":19016,
			"target":34963
		},
		{
			"buffer":0,
			"byteLength":1260,
			"byteOffset":19640,
			"target":34962
		},
		{
			"buffer":0,
			"byteLength":1260,
			"byteOffset":20900,
			"target":34962
		},
		{
			"buffer":0,
			"byteLength":840,
			"byteOffset":22160,
			"target":34962
		},
		{
			"buffer":0,
			"byteLength":750,
			"byteOffset":23000,
			"target":34963
		},
		{
			"buffer":0,
			"byteLength":1128,
			"byteOffset":23752,
			"target":34962
		},
		{
			"buffer":0,
			"byteLength":1128,
			"byteOffset":24880,
			"target":34962
		},
		{
			"buffer":0,
			"byteLength":752,
			"byteOffset":26008,
			"target":34962
		},
		{
			"buffer":0,
			"byteLength":648,
			"byteOffset":26760,
			"target":34963
		},
		{
			"buffer":0,
			"byteLength":324,
			"byteOffset":27408,
			"target":34962
		},
		{
			"buffer":0,
			"byteLength":324,
			"byteOffset":27732,
			"target":34962
		},
		{
			"buffer":0,
			"byteLength":216,
			"byteOffset":28056,
			"target":34962
		},
		{
			"buffer":0,
			"byteLength":180,
			"byteOffset":28272,
			"target":34963
		},
		{
			"buffer":0,
			"byteLength":264,
			"byteOffset":28452,
			"target":34962
		},
		{
			"buffer":0,
			"byteLength":264,
			"byteOffset":28716,
			"target":34962
		},
		{
			"buffer":0,
			"byteLength":176,
			"byteOffset":28980,
			"target":34962
		},
		{
			"buffer":0,
			"byteLength":156,
			"byteOffset":29156,
			"target":34963
		},
		{
			"buffer":0,
			"byteLength":264,
			"byteOffset":29312,
			"target":34962
		},
		{
			"buffer":0,
			"byteLength":264,
			"byteOffset":29576,
			"target":34962
		},
		{
			"buffer":0,
			"byteLength":176,
			"byteOffset":29840,
			"target":34962
		},
		{
			"buffer":0,
			"byteLength":1320,
			"byteOffset":30016,
			"target":34962
		},
		{
			"buffer":0,
			"byteLength":1320,
			"byteOffset":31336,
			"target":34962
		},
		{
			"buffer":0,
			"byteLength":880,
			"byteOffset":32656,
			"target":34962
		},
		{
			"buffer":0,
			"byteLength":690,
			"byteOffset":33536,
			"target":34963
		},
		{
			"buffer":0,
			"byteLength":264,
			"byteOffset":34228,
			"target":34962
		},
		{
			"buffer":0,
			"byteLength":264,
			"byteOffset":34492,
			"target":34962
		},
		{
			"buffer":0,
			"byteLength":176,
			"byteOffset":34756,
			"target":34962
		},
		{
			"buffer":0,
			"byteLength":312,
			"byteOffset":34932,
			"target":34962
		},
		{
			"buffer":0,
			"byteLength":312,
			"byteOffset":35244,
			"target":34962
		},
		{
			"buffer":0,
			"byteLength":208,
			"byteOffset":35556,
			"target":34962
		},
		{
			"buffer":0,
			"byteLength":180,
			"byteOffset":35764,
			"target":34963
		},
		{
			"buffer":0,
			"byteLength":624,
			"byteOffset":35944,
			"target":34962
		},
		{
			"buffer":0,
			"byteLength":624,
			"byteOffset":36568,
			"target":34962
		},
		{
			"buffer":0,
			"byteLength":416,
			"byteOffset":37192,
			"target":34962
		},
		{
			"buffer":0,
			"byteLength":288,
			"byteOffset":37608,
			"target":34963
		}
	],
	"samplers":[
		{
			"magFilter":9729,
			"minFilter":9987
		}
	],
	"buffers":[
		{
			"byteLength":37896,
			"uri":"o_donkey_forest_river.bin"
		}
	]
}
