{
	"asset":{
		"generator":"Khronos glTF Blender I/O v3.5.30",
		"version":"2.0"
	},
	"scene":0,
	"scenes":[
		{
			"name":"Scene",
			"nodes":[
				1
			]
		}
	],
	"nodes":[
		{
			"mesh":0,
			"name":"A23DOBJ_001",
			"translation":[
				0,
				0.0030000312253832817,
				0
			]
		},
		{
			"children":[
				0
			],
			"name":"A23D"
		}
	],
	"materials":[
		{
			"alphaCutoff":0.5,
			"alphaMode":"MASK",
			"doubleSided":true,
			"name":"A23DMAT_002",
			"normalTexture":{
				"index":0
			},
			"pbrMetallicRoughness":{
				"baseColorTexture":{
					"index":1
				},
				"metallicRoughnessTexture":{
					"index":2
				}
			}
		},
		{
			"alphaCutoff":0.5,
			"alphaMode":"MASK",
			"doubleSided":true,
			"name":"A23DMAT_001",
			"normalTexture":{
				"index":3
			},
			"pbrMetallicRoughness":{
				"baseColorTexture":{
					"index":4
				},
				"metallicFactor":0,
				"metallicRoughnessTexture":{
					"index":5
				}
			}
		},
		{
			"alphaCutoff":0.5,
			"alphaMode":"MASK",
			"doubleSided":true,
			"name":"A23DMAT_003",
			"normalTexture":{
				"index":6
			},
			"pbrMetallicRoughness":{
				"baseColorTexture":{
					"index":7
				},
				"metallicRoughnessTexture":{
					"index":8
				}
			}
		}
	],
	"meshes":[
		{
			"name":"Mesh.001",
			"primitives":[
				{
					"attributes":{
						"POSITION":0,
						"TEXCOORD_0":1,
						"NORMAL":2
					},
					"indices":3,
					"material":0
				},
				{
					"attributes":{
						"POSITION":4,
						"TEXCOORD_0":5,
						"NORMAL":6
					},
					"indices":7,
					"material":1
				},
				{
					"attributes":{
						"POSITION":8,
						"TEXCOORD_0":9,
						"NORMAL":10
					},
					"indices":11,
					"material":2
				}
			]
		}
	],
	"textures":[
		{
			"sampler":0,
			"source":0
		},
		{
			"sampler":0,
			"source":1
		},
		{
			"sampler":0,
			"source":2
		},
		{
			"sampler":0,
			"source":3
		},
		{
			"sampler":0,
			"source":4
		},
		{
			"sampler":0,
			"source":5
		},
		{
			"sampler":0,
			"source":6
		},
		{
			"sampler":0,
			"source":7
		},
		{
			"sampler":0,
			"source":8
		}
	],
	"images":[
		{
			"bufferView":4,
			"mimeType":"image/jpeg",
			"name":"A23DMAT_002_Normal"
		},
		{
			"bufferView":5,
			"mimeType":"image/png",
			"name":"A23DMAT_002_Albedo-A23DMAT_002_Opacity"
		},
		{
			"bufferView":6,
			"mimeType":"image/png",
			"name":"A23DMAT_002_Metallic-A23DMAT_002_Roughness"
		},
		{
			"bufferView":11,
			"mimeType":"image/jpeg",
			"name":"A23DMAT_001_Normal"
		},
		{
			"bufferView":12,
			"mimeType":"image/jpeg",
			"name":"A23DMAT_001_Albedo"
		},
		{
			"bufferView":13,
			"mimeType":"image/png",
			"name":"A23DMAT_001_Roughness"
		},
		{
			"bufferView":18,
			"mimeType":"image/jpeg",
			"name":"A23DMAT_003_Normal"
		},
		{
			"bufferView":19,
			"mimeType":"image/png",
			"name":"A23DMAT_003_Albedo-A23DMAT_003_Opacity"
		},
		{
			"bufferView":20,
			"mimeType":"image/png",
			"name":"A23DMAT_003_Metallic-A23DMAT_003_Roughness"
		}
	],
	"accessors":[
		{
			"bufferView":0,
			"componentType":5126,
			"count":4058,
			"max":[
				0.5659244656562805,
				0.7050864696502686,
				0.30173781514167786
			],
			"min":[
				-0.5592965483665466,
				0.6420604586601257,
				0.27542227506637573
			],
			"type":"VEC3"
		},
		{
			"bufferView":1,
			"componentType":5126,
			"count":4058,
			"type":"VEC2"
		},
		{
			"bufferView":2,
			"componentType":5126,
			"count":4058,
			"type":"VEC3"
		},
		{
			"bufferView":3,
			"componentType":5123,
			"count":21864,
			"type":"SCALAR"
		},
		{
			"bufferView":7,
			"componentType":5126,
			"count":8796,
			"max":[
				0.6498956680297852,
				0.7523272633552551,
				0.2967606484889984
			],
			"min":[
				-0.6498956680297852,
				0.002958637662231922,
				-0.30173781514167786
			],
			"type":"VEC3"
		},
		{
			"bufferView":8,
			"componentType":5126,
			"count":8796,
			"type":"VEC2"
		},
		{
			"bufferView":9,
			"componentType":5126,
			"count":8796,
			"type":"VEC3"
		},
		{
			"bufferView":10,
			"componentType":5123,
			"count":25716,
			"type":"SCALAR"
		},
		{
			"bufferView":14,
			"componentType":5126,
			"count":2512,
			"max":[
				0.6202875971794128,
				0.004440282005816698,
				0.2513779103755951
			],
			"min":[
				-0.6191545128822327,
				-1.3027009916142108e-15,
				-0.26218336820602417
			],
			"type":"VEC3"
		},
		{
			"bufferView":15,
			"componentType":5126,
			"count":2512,
			"type":"VEC2"
		},
		{
			"bufferView":16,
			"componentType":5126,
			"count":2512,
			"type":"VEC3"
		},
		{
			"bufferView":17,
			"componentType":5123,
			"count":9984,
			"type":"SCALAR"
		}
	],
	"bufferViews":[
		{
			"buffer":0,
			"byteLength":48696,
			"byteOffset":0,
			"target":34962
		},
		{
			"buffer":0,
			"byteLength":32464,
			"byteOffset":48696,
			"target":34962
		},
		{
			"buffer":0,
			"byteLength":48696,
			"byteOffset":81160,
			"target":34962
		},
		{
			"buffer":0,
			"byteLength":43728,
			"byteOffset":129856,
			"target":34963
		},
		{
			"buffer":0,
			"byteLength":17219,
			"byteOffset":173584
		},
		{
			"buffer":0,
			"byteLength":20567,
			"byteOffset":190804
		},
		{
			"buffer":0,
			"byteLength":15801,
			"byteOffset":211372
		},
		{
			"buffer":0,
			"byteLength":105552,
			"byteOffset":227176,
			"target":34962
		},
		{
			"buffer":0,
			"byteLength":70368,
			"byteOffset":332728,
			"target":34962
		},
		{
			"buffer":0,
			"byteLength":105552,
			"byteOffset":403096,
			"target":34962
		},
		{
			"buffer":0,
			"byteLength":51432,
			"byteOffset":508648,
			"target":34963
		},
		{
			"buffer":0,
			"byteLength":17219,
			"byteOffset":560080
		},
		{
			"buffer":0,
			"byteLength":423673,
			"byteOffset":577300
		},
		{
			"buffer":0,
			"byteLength":15801,
			"byteOffset":1000976
		},
		{
			"buffer":0,
			"byteLength":30144,
			"byteOffset":1016780,
			"target":34962
		},
		{
			"buffer":0,
			"byteLength":20096,
			"byteOffset":1046924,
			"target":34962
		},
		{
			"buffer":0,
			"byteLength":30144,
			"byteOffset":1067020,
			"target":34962
		},
		{
			"buffer":0,
			"byteLength":19968,
			"byteOffset":1097164,
			"target":34963
		},
		{
			"buffer":0,
			"byteLength":17219,
			"byteOffset":1117132
		},
		{
			"buffer":0,
			"byteLength":417257,
			"byteOffset":1134352
		},
		{
			"buffer":0,
			"byteLength":700056,
			"byteOffset":1551612
		}
	],
	"samplers":[
		{
			"magFilter":9729,
			"minFilter":9987
		}
	],
	"buffers":[
		{
			"byteLength":2251668,
			"uri":"data:application/octet-stream;base64,"
		}
	]
}
