{
	"asset":{
		"generator":"Khronos glTF Blender I/O v3.5.30",
		"version":"2.0"
	},
	"scene":0,
	"scenes":[
		{
			"name":"Scene",
			"nodes":[
				8
			]
		}
	],
	"nodes":[
		{
			"mesh":0,
			"name":"A23DOBJ_002",
			"translation":[
				-0.13594096899032593,
				-0.02371734194457531,
				-0.012828168459236622
			]
		},
		{
			"mesh":1,
			"name":"A23DOBJ_003",
			"translation":[
				-0.030387520790100098,
				-0.020625293254852295,
				-0.003964772913604975
			]
		},
		{
			"mesh":2,
			"name":"A23DOBJ_004",
			"translation":[
				0.07360383868217468,
				-0.02060505747795105,
				0
			]
		},
		{
			"mesh":3,
			"name":"A23DOBJ_005",
			"translation":[
				0.20493629574775696,
				-0.021717606112360954,
				-0.011171139776706696
			]
		},
		{
			"mesh":4,
			"name":"A23DOBJ_006",
			"translation":[
				0.3179735541343689,
				-0.0181423407047987,
				-0.015078803524374962
			]
		},
		{
			"mesh":5,
			"name":"A23DOBJ_007",
			"rotation":[
				0,
				-0.19066937267780304,
				0,
				0.9816543459892273
			],
			"translation":[
				-0.26993826031684875,
				-0.024829596281051636,
				-0.0028992367442697287
			]
		},
		{
			"children":[
				0,
				1,
				2,
				3,
				4,
				5
			],
			"name":"A23DGRP_001",
			"translation":[
				-0.021938391029834747,
				0.4457271099090576,
				0.0022317853290587664
			]
		},
		{
			"mesh":6,
			"name":"A23DOBJ_001",
			"translation":[
				0,
				0.4449152946472168,
				-0.04531819000840187
			]
		},
		{
			"children":[
				6,
				7
			],
			"name":"A23D"
		}
	],
	"materials":[
		{
			"alphaCutoff":0.5,
			"alphaMode":"MASK",
			"doubleSided":true,
			"name":"A23DMAT_004",
			"normalTexture":{
				"index":0
			},
			"pbrMetallicRoughness":{
				"baseColorTexture":{
					"index":1
				},
				"metallicRoughnessTexture":{
					"index":2
				}
			}
		},
		{
			"alphaCutoff":0.5,
			"alphaMode":"MASK",
			"doubleSided":true,
			"name":"A23DMAT_002",
			"normalTexture":{
				"index":3
			},
			"pbrMetallicRoughness":{
				"baseColorTexture":{
					"index":4
				},
				"metallicRoughnessTexture":{
					"index":5
				}
			}
		},
		{
			"alphaCutoff":0.5,
			"alphaMode":"MASK",
			"doubleSided":true,
			"name":"A23DMAT_003",
			"normalTexture":{
				"index":6
			},
			"pbrMetallicRoughness":{
				"baseColorTexture":{
					"index":7
				},
				"metallicRoughnessTexture":{
					"index":8
				}
			}
		},
		{
			"alphaCutoff":0.5,
			"alphaMode":"MASK",
			"doubleSided":true,
			"name":"A23DMAT_001",
			"normalTexture":{
				"index":9
			},
			"pbrMetallicRoughness":{
				"baseColorTexture":{
					"index":10
				},
				"metallicRoughnessTexture":{
					"index":11
				}
			}
		}
	],
	"meshes":[
		{
			"name":"Mesh.001",
			"primitives":[
				{
					"attributes":{
						"POSITION":0,
						"TEXCOORD_0":1,
						"TEXCOORD_1":2,
						"NORMAL":3
					},
					"indices":4,
					"material":0
				}
			]
		},
		{
			"name":"Mesh.002",
			"primitives":[
				{
					"attributes":{
						"POSITION":5,
						"TEXCOORD_0":6,
						"TEXCOORD_1":7,
						"NORMAL":8
					},
					"indices":9,
					"material":0
				}
			]
		},
		{
			"name":"Mesh.003",
			"primitives":[
				{
					"attributes":{
						"POSITION":10,
						"TEXCOORD_0":11,
						"TEXCOORD_1":12,
						"NORMAL":13
					},
					"indices":14,
					"material":0
				}
			]
		},
		{
			"name":"Mesh.004",
			"primitives":[
				{
					"attributes":{
						"POSITION":15,
						"TEXCOORD_0":16,
						"TEXCOORD_1":17,
						"NORMAL":18
					},
					"indices":19,
					"material":0
				}
			]
		},
		{
			"name":"Mesh.005",
			"primitives":[
				{
					"attributes":{
						"POSITION":20,
						"TEXCOORD_0":21,
						"TEXCOORD_1":22,
						"NORMAL":23
					},
					"indices":24,
					"material":0
				}
			]
		},
		{
			"name":"Mesh.006",
			"primitives":[
				{
					"attributes":{
						"POSITION":25,
						"TEXCOORD_0":26,
						"TEXCOORD_1":27,
						"NORMAL":28
					},
					"indices":29,
					"material":0
				}
			]
		},
		{
			"name":"Mesh",
			"primitives":[
				{
					"attributes":{
						"POSITION":30,
						"TEXCOORD_0":31,
						"TEXCOORD_1":32,
						"NORMAL":33
					},
					"indices":34,
					"material":1
				},
				{
					"attributes":{
						"POSITION":35,
						"TEXCOORD_0":36,
						"TEXCOORD_1":37,
						"NORMAL":38
					},
					"indices":39,
					"material":2
				},
				{
					"attributes":{
						"POSITION":40,
						"TEXCOORD_0":41,
						"TEXCOORD_1":42,
						"NORMAL":43
					},
					"indices":44,
					"material":3
				}
			]
		}
	],
	"textures":[
		{
			"sampler":0,
			"source":0
		},
		{
			"sampler":0,
			"source":1
		},
		{
			"sampler":0,
			"source":2
		},
		{
			"sampler":0,
			"source":3
		},
		{
			"sampler":0,
			"source":4
		},
		{
			"sampler":0,
			"source":5
		},
		{
			"sampler":0,
			"source":6
		},
		{
			"sampler":0,
			"source":7
		},
		{
			"sampler":0,
			"source":8
		},
		{
			"sampler":0,
			"source":9
		},
		{
			"sampler":0,
			"source":10
		},
		{
			"sampler":0,
			"source":11
		}
	],
	"images":[
		{
			"bufferView":5,
			"mimeType":"image/jpeg",
			"name":"A23DMAT_004_Normal"
		},
		{
			"bufferView":6,
			"mimeType":"image/jpeg",
			"name":"A23DMAT_004_Albedo"
		},
		{
			"bufferView":7,
			"mimeType":"image/png",
			"name":"A23DMAT_004_Metallic-A23DMAT_004_Roughness"
		},
		{
			"bufferView":38,
			"mimeType":"image/jpeg",
			"name":"A23DMAT_002_Normal"
		},
		{
			"bufferView":39,
			"mimeType":"image/png",
			"name":"A23DMAT_002_Albedo-A23DMAT_002_Opacity"
		},
		{
			"bufferView":40,
			"mimeType":"image/png",
			"name":"A23DMAT_002_Metallic-A23DMAT_002_Roughness"
		},
		{
			"bufferView":46,
			"mimeType":"image/jpeg",
			"name":"A23DMAT_003_Normal"
		},
		{
			"bufferView":47,
			"mimeType":"image/png",
			"name":"A23DMAT_003_Albedo-A23DMAT_003_Opacity"
		},
		{
			"bufferView":48,
			"mimeType":"image/png",
			"name":"A23DMAT_003_Metallic-A23DMAT_003_Roughness"
		},
		{
			"bufferView":54,
			"mimeType":"image/jpeg",
			"name":"A23DMAT_001_Normal"
		},
		{
			"bufferView":55,
			"mimeType":"image/png",
			"name":"A23DMAT_001_Albedo-A23DMAT_001_Opacity"
		},
		{
			"bufferView":56,
			"mimeType":"image/png",
			"name":"A23DMAT_001_Metallic-A23DMAT_001_Roughness"
		}
	],
	"accessors":[
		{
			"bufferView":0,
			"componentType":5126,
			"count":2855,
			"max":[
				0.04551899805665016,
				0.008103189058601856,
				0.019640618935227394
			],
			"min":[
				-0.04551899805665016,
				-0.39126425981521606,
				-0.01964065246284008
			],
			"type":"VEC3"
		},
		{
			"bufferView":1,
			"componentType":5126,
			"count":2855,
			"type":"VEC2"
		},
		{
			"bufferView":2,
			"componentType":5126,
			"count":2855,
			"type":"VEC2"
		},
		{
			"bufferView":3,
			"componentType":5126,
			"count":2855,
			"type":"VEC3"
		},
		{
			"bufferView":4,
			"componentType":5123,
			"count":12504,
			"type":"SCALAR"
		},
		{
			"bufferView":8,
			"componentType":5126,
			"count":7808,
			"max":[
				0.04861394688487053,
				0.0046944813802838326,
				0.027341121807694435
			],
			"min":[
				-0.04861394688487053,
				-0.3522089123725891,
				-0.027341151610016823
			],
			"type":"VEC3"
		},
		{
			"bufferView":9,
			"componentType":5126,
			"count":7808,
			"type":"VEC2"
		},
		{
			"bufferView":10,
			"componentType":5126,
			"count":7808,
			"type":"VEC2"
		},
		{
			"bufferView":11,
			"componentType":5126,
			"count":7808,
			"type":"VEC3"
		},
		{
			"bufferView":12,
			"componentType":5123,
			"count":23352,
			"type":"SCALAR"
		},
		{
			"bufferView":13,
			"componentType":5126,
			"count":2828,
			"max":[
				0.05996017903089523,
				0.004803220275789499,
				0.042601656168699265
			],
			"min":[
				-0.05996017903089523,
				-0.4048832654953003,
				-0.04260169342160225
			],
			"type":"VEC3"
		},
		{
			"bufferView":14,
			"componentType":5126,
			"count":2828,
			"type":"VEC2"
		},
		{
			"bufferView":15,
			"componentType":5126,
			"count":2828,
			"type":"VEC2"
		},
		{
			"bufferView":16,
			"componentType":5126,
			"count":2828,
			"type":"VEC3"
		},
		{
			"bufferView":17,
			"componentType":5123,
			"count":13200,
			"type":"SCALAR"
		},
		{
			"bufferView":18,
			"componentType":5126,
			"count":2784,
			"max":[
				0.048244595527648926,
				0.006745519582182169,
				0.030007481575012207
			],
			"min":[
				-0.04824458807706833,
				-0.4130581319332123,
				-0.030007516965270042
			],
			"type":"VEC3"
		},
		{
			"bufferView":19,
			"componentType":5126,
			"count":2784,
			"type":"VEC2"
		},
		{
			"bufferView":20,
			"componentType":5126,
			"count":2784,
			"type":"VEC2"
		},
		{
			"bufferView":21,
			"componentType":5126,
			"count":2784,
			"type":"VEC3"
		},
		{
			"bufferView":22,
			"componentType":5123,
			"count":9180,
			"type":"SCALAR"
		},
		{
			"bufferView":23,
			"componentType":5126,
			"count":1130,
			"max":[
				0.02255028672516346,
				0.00249015842564404,
				0.010520672425627708
			],
			"min":[
				-0.022550305351614952,
				-0.42758476734161377,
				-0.010520710609853268
			],
			"type":"VEC3"
		},
		{
			"bufferView":24,
			"componentType":5126,
			"count":1130,
			"type":"VEC2"
		},
		{
			"bufferView":25,
			"componentType":5126,
			"count":1130,
			"type":"VEC2"
		},
		{
			"bufferView":26,
			"componentType":5126,
			"count":1130,
			"type":"VEC3"
		},
		{
			"bufferView":27,
			"componentType":5123,
			"count":3804,
			"type":"SCALAR"
		},
		{
			"bufferView":28,
			"componentType":5126,
			"count":18180,
			"max":[
				0.07058560103178024,
				0.00889451615512371,
				0.024636663496494293
			],
			"min":[
				-0.07058560103178024,
				-0.4112454056739807,
				-0.02463669702410698
			],
			"type":"VEC3"
		},
		{
			"bufferView":29,
			"componentType":5126,
			"count":18180,
			"type":"VEC2"
		},
		{
			"bufferView":30,
			"componentType":5126,
			"count":18180,
			"type":"VEC2"
		},
		{
			"bufferView":31,
			"componentType":5126,
			"count":18180,
			"type":"VEC3"
		},
		{
			"bufferView":32,
			"componentType":5123,
			"count":39264,
			"type":"SCALAR"
		},
		{
			"bufferView":33,
			"componentType":5126,
			"count":598,
			"max":[
				0.36286190152168274,
				0.013263599947094917,
				0.03460335731506348
			],
			"min":[
				-0.36286190152168274,
				-0.012345368042588234,
				0.031037896871566772
			],
			"type":"VEC3"
		},
		{
			"bufferView":34,
			"componentType":5126,
			"count":598,
			"type":"VEC2"
		},
		{
			"bufferView":35,
			"componentType":5126,
			"count":598,
			"type":"VEC2"
		},
		{
			"bufferView":36,
			"componentType":5126,
			"count":598,
			"type":"VEC3"
		},
		{
			"bufferView":37,
			"componentType":5123,
			"count":2856,
			"type":"SCALAR"
		},
		{
			"bufferView":41,
			"componentType":5126,
			"count":6443,
			"max":[
				0.38031330704689026,
				0.031515587121248245,
				0.04786152020096779
			],
			"min":[
				-0.38031330704689026,
				-0.030334945768117905,
				0.0004847906529903412
			],
			"type":"VEC3"
		},
		{
			"bufferView":42,
			"componentType":5126,
			"count":6443,
			"type":"VEC2"
		},
		{
			"bufferView":43,
			"componentType":5126,
			"count":6443,
			"type":"VEC2"
		},
		{
			"bufferView":44,
			"componentType":5126,
			"count":6443,
			"type":"VEC3"
		},
		{
			"bufferView":45,
			"componentType":5123,
			"count":26988,
			"type":"SCALAR"
		},
		{
			"bufferView":49,
			"componentType":5126,
			"count":718,
			"max":[
				0.35383012890815735,
				0.005032230168581009,
				0.03457554802298546
			],
			"min":[
				-0.3538285195827484,
				-0.0041964091360569,
				0.031978804618120193
			],
			"type":"VEC3"
		},
		{
			"bufferView":50,
			"componentType":5126,
			"count":718,
			"type":"VEC2"
		},
		{
			"bufferView":51,
			"componentType":5126,
			"count":718,
			"type":"VEC2"
		},
		{
			"bufferView":52,
			"componentType":5126,
			"count":718,
			"type":"VEC3"
		},
		{
			"bufferView":53,
			"componentType":5123,
			"count":2376,
			"type":"SCALAR"
		}
	],
	"bufferViews":[
		{
			"buffer":0,
			"byteLength":34260,
			"byteOffset":0,
			"target":34962
		},
		{
			"buffer":0,
			"byteLength":22840,
			"byteOffset":34260,
			"target":34962
		},
		{
			"buffer":0,
			"byteLength":22840,
			"byteOffset":57100,
			"target":34962
		},
		{
			"buffer":0,
			"byteLength":34260,
			"byteOffset":79940,
			"target":34962
		},
		{
			"buffer":0,
			"byteLength":25008,
			"byteOffset":114200,
			"target":34963
		},
		{
			"buffer":0,
			"byteLength":17219,
			"byteOffset":139208
		},
		{
			"buffer":0,
			"byteLength":17218,
			"byteOffset":156428
		},
		{
			"buffer":0,
			"byteLength":31932,
			"byteOffset":173648
		},
		{
			"buffer":0,
			"byteLength":93696,
			"byteOffset":205580,
			"target":34962
		},
		{
			"buffer":0,
			"byteLength":62464,
			"byteOffset":299276,
			"target":34962
		},
		{
			"buffer":0,
			"byteLength":62464,
			"byteOffset":361740,
			"target":34962
		},
		{
			"buffer":0,
			"byteLength":93696,
			"byteOffset":424204,
			"target":34962
		},
		{
			"buffer":0,
			"byteLength":46704,
			"byteOffset":517900,
			"target":34963
		},
		{
			"buffer":0,
			"byteLength":33936,
			"byteOffset":564604,
			"target":34962
		},
		{
			"buffer":0,
			"byteLength":22624,
			"byteOffset":598540,
			"target":34962
		},
		{
			"buffer":0,
			"byteLength":22624,
			"byteOffset":621164,
			"target":34962
		},
		{
			"buffer":0,
			"byteLength":33936,
			"byteOffset":643788,
			"target":34962
		},
		{
			"buffer":0,
			"byteLength":26400,
			"byteOffset":677724,
			"target":34963
		},
		{
			"buffer":0,
			"byteLength":33408,
			"byteOffset":704124,
			"target":34962
		},
		{
			"buffer":0,
			"byteLength":22272,
			"byteOffset":737532,
			"target":34962
		},
		{
			"buffer":0,
			"byteLength":22272,
			"byteOffset":759804,
			"target":34962
		},
		{
			"buffer":0,
			"byteLength":33408,
			"byteOffset":782076,
			"target":34962
		},
		{
			"buffer":0,
			"byteLength":18360,
			"byteOffset":815484,
			"target":34963
		},
		{
			"buffer":0,
			"byteLength":13560,
			"byteOffset":833844,
			"target":34962
		},
		{
			"buffer":0,
			"byteLength":9040,
			"byteOffset":847404,
			"target":34962
		},
		{
			"buffer":0,
			"byteLength":9040,
			"byteOffset":856444,
			"target":34962
		},
		{
			"buffer":0,
			"byteLength":13560,
			"byteOffset":865484,
			"target":34962
		},
		{
			"buffer":0,
			"byteLength":7608,
			"byteOffset":879044,
			"target":34963
		},
		{
			"buffer":0,
			"byteLength":218160,
			"byteOffset":886652,
			"target":34962
		},
		{
			"buffer":0,
			"byteLength":145440,
			"byteOffset":1104812,
			"target":34962
		},
		{
			"buffer":0,
			"byteLength":145440,
			"byteOffset":1250252,
			"target":34962
		},
		{
			"buffer":0,
			"byteLength":218160,
			"byteOffset":1395692,
			"target":34962
		},
		{
			"buffer":0,
			"byteLength":78528,
			"byteOffset":1613852,
			"target":34963
		},
		{
			"buffer":0,
			"byteLength":7176,
			"byteOffset":1692380,
			"target":34962
		},
		{
			"buffer":0,
			"byteLength":4784,
			"byteOffset":1699556,
			"target":34962
		},
		{
			"buffer":0,
			"byteLength":4784,
			"byteOffset":1704340,
			"target":34962
		},
		{
			"buffer":0,
			"byteLength":7176,
			"byteOffset":1709124,
			"target":34962
		},
		{
			"buffer":0,
			"byteLength":5712,
			"byteOffset":1716300,
			"target":34963
		},
		{
			"buffer":0,
			"byteLength":17219,
			"byteOffset":1722012
		},
		{
			"buffer":0,
			"byteLength":20568,
			"byteOffset":1739232
		},
		{
			"buffer":0,
			"byteLength":15801,
			"byteOffset":1759800
		},
		{
			"buffer":0,
			"byteLength":77316,
			"byteOffset":1775604,
			"target":34962
		},
		{
			"buffer":0,
			"byteLength":51544,
			"byteOffset":1852920,
			"target":34962
		},
		{
			"buffer":0,
			"byteLength":51544,
			"byteOffset":1904464,
			"target":34962
		},
		{
			"buffer":0,
			"byteLength":77316,
			"byteOffset":1956008,
			"target":34962
		},
		{
			"buffer":0,
			"byteLength":53976,
			"byteOffset":2033324,
			"target":34963
		},
		{
			"buffer":0,
			"byteLength":17219,
			"byteOffset":2087300
		},
		{
			"buffer":0,
			"byteLength":20567,
			"byteOffset":2104520
		},
		{
			"buffer":0,
			"byteLength":15801,
			"byteOffset":2125088
		},
		{
			"buffer":0,
			"byteLength":8616,
			"byteOffset":2140892,
			"target":34962
		},
		{
			"buffer":0,
			"byteLength":5744,
			"byteOffset":2149508,
			"target":34962
		},
		{
			"buffer":0,
			"byteLength":5744,
			"byteOffset":2155252,
			"target":34962
		},
		{
			"buffer":0,
			"byteLength":8616,
			"byteOffset":2160996,
			"target":34962
		},
		{
			"buffer":0,
			"byteLength":4752,
			"byteOffset":2169612,
			"target":34963
		},
		{
			"buffer":0,
			"byteLength":17219,
			"byteOffset":2174364
		},
		{
			"buffer":0,
			"byteLength":20568,
			"byteOffset":2191584
		},
		{
			"buffer":0,
			"byteLength":15800,
			"byteOffset":2212152
		}
	],
	"samplers":[
		{
			"magFilter":9729,
			"minFilter":9987
		}
	],
	"buffers":[
		{
			"byteLength":2227952,
			"uri":"data:application/octet-stream;base64,"
		}
	]
}
